<svg version="1.1" id="Layer_1" xmlns="http://www.w3.org/2000/svg" xmlns:xlink="http://www.w3.org/1999/xlink" x="0px" y="0px"
	 width="100%" viewBox="0 0 1024 544" enable-background="new 0 0 1024 544" xml:space="preserve">
<path fill="#000000" opacity="1.000000" stroke="none"
	d="
M440.871490,29.749424
	C477.040100,19.883005 513.199463,17.155449 550.055176,22.421089
	C580.740967,26.805210 609.657898,36.208771 637.153809,50.293941
	C643.785583,53.691139 646.614990,58.246223 645.832031,63.997208
	C644.624268,72.868332 635.911926,77.129807 627.121826,72.734314
	C615.293457,66.819511 603.080627,61.977192 590.202698,59.053982
	C540.342346,47.735950 494.592499,56.990608 453.632263,87.661224
	C433.483002,102.748779 418.151184,122.239708 406.127563,144.316254
	C403.960999,148.294205 401.227295,151.531952 396.479675,152.216202
	C391.701050,152.904938 387.551910,151.708801 384.565430,147.614761
	C381.237244,143.052292 381.313812,138.146683 383.837524,133.460892
	C395.799835,111.250465 410.979797,91.552025 430.107605,74.989326
	C441.076660,65.491302 453.125031,57.532669 465.528534,49.920013
	C452.624084,51.424896 440.143646,54.526543 428.432526,59.990654
	C389.370453,78.216042 366.532654,109.338203 357.396606,150.934708
	C351.052094,179.821365 352.436890,208.798447 357.323547,237.738297
	C362.451935,268.109894 370.327087,297.642120 385.386322,324.760529
	C403.076019,356.615784 427.787323,380.644012 463.169281,392.108185
	C492.492310,401.609283 521.651550,401.479218 549.849854,388.302582
	C582.891541,372.862732 601.514771,346.434174 606.862183,310.450195
	C608.967468,296.283356 607.124451,282.580933 602.561401,269.148651
	C601.679321,266.551880 600.788269,263.897583 598.492310,261.112915
	C597.870667,276.003876 594.741455,289.492920 587.294434,301.680267
	C572.949341,325.156586 551.426941,337.575806 524.563538,340.178223
	C471.539612,345.314972 432.559692,309.087738 423.925140,260.346619
	C416.156830,216.495117 427.646057,177.676270 459.463959,145.941483
	C480.087891,125.371437 505.822876,115.331940 534.620728,112.565300
	C569.910522,109.174957 602.145996,117.720184 631.013855,138.000381
	C659.880676,158.279861 679.038452,186.124359 691.300598,218.927475
	C699.880920,241.881119 704.127075,265.698822 705.410583,290.113007
	C708.310852,345.278656 695.890259,396.507416 666.094543,443.259033
	C659.016296,454.365234 651.102661,464.871063 642.470764,474.894623
	C649.370789,470.951019 655.472778,465.942017 661.384705,460.746521
	C694.160828,431.942169 717.353455,396.709412 731.596863,355.522125
	C742.289978,324.601013 746.933350,292.712036 744.476135,260.167206
	C741.199524,216.771179 728.408447,176.274918 703.955994,139.886185
	C700.804932,135.196960 697.049500,130.915253 693.599548,126.425125
	C689.121460,120.596710 689.590332,112.717407 694.642761,108.432449
	C699.801575,104.057182 707.302490,104.877991 712.452271,110.618050
	C727.559143,127.456635 737.962097,147.164551 746.861206,167.740463
	C756.825317,190.778702 763.757751,214.756531 767.033936,239.615356
	C773.641541,289.752075 767.102539,338.178711 746.864929,384.657532
	C732.645630,417.314178 712.853271,446.094757 687.066101,470.671112
	C647.716248,508.173309 601.188538,531.393799 547.583557,540.503784
	C493.806274,549.642883 442.444122,542.767273 393.856445,517.482727
	C381.723663,511.168884 370.165741,503.880920 359.137390,495.773163
	C354.479492,492.348724 352.675812,487.709442 353.998718,482.166901
	C355.187958,477.184326 358.592560,474.129761 363.692749,473.235748
	C368.175262,472.449982 371.725647,474.585815 375.173676,477.087341
	C398.474121,493.991638 423.862671,506.537231 451.818451,513.708679
	C513.592957,529.555603 566.766418,513.193115 612.155762,469.870636
	C649.620972,434.111359 671.669373,389.972687 678.704346,338.762146
	C684.709656,295.047546 680.976135,252.246765 661.327637,212.008133
	C643.727295,175.963928 616.509766,150.365646 577.009033,140.152191
	C544.432190,131.728989 513.384277,136.063995 485.702240,156.157333
	C463.162720,172.517853 451.546295,195.648239 447.383759,222.738342
	C444.449982,241.831421 447.169342,260.220337 455.528687,277.687256
	C470.929016,309.866425 507.217987,324.797913 539.062073,311.567963
	C561.023254,302.443939 573.226685,285.534454 573.426025,261.676971
	C573.627319,237.569763 558.051636,219.976105 537.190063,217.938492
	C524.595215,216.708328 514.375305,221.460724 506.567383,231.268616
	C502.753540,236.059311 498.496002,239.198532 492.028473,237.387756
	C483.981995,235.134918 480.123474,226.529068 484.735168,219.604340
	C494.458496,205.004135 508.144867,196.064957 525.638000,193.728745
	C566.508057,188.270569 607.723633,215.809509 623.079834,254.827606
	C641.127075,300.683044 633.272522,342.866394 601.500732,380.211792
	C579.340332,406.259705 550.102295,419.673706 516.397522,422.250336
	C456.943573,426.795319 410.014923,403.675659 375.297455,355.525665
	C355.037201,327.426544 344.420227,295.261353 336.744232,261.923676
	C330.357758,234.186371 327.464783,206.084366 328.852570,177.669159
	C329.855225,157.140671 333.669250,137.055420 340.785370,117.377914
	C337.991974,120.442215 335.079987,123.408264 332.437866,126.597878
	C329.677338,129.930435 327.093628,133.418869 324.575134,136.941071
	C303.056549,167.035538 290.120361,200.606445 284.198395,236.995163
	C278.738831,270.542603 279.168304,303.872223 291.290131,335.960175
	C311.838470,390.354218 350.784027,423.958893 407.969391,435.761566
	C440.873199,442.552704 473.193085,439.152802 505.050995,429.347961
	C507.264526,428.666718 509.532501,427.925598 511.816040,427.752747
	C518.811401,427.223175 523.174927,430.610321 524.788269,437.479797
	C526.140076,443.235687 522.935425,449.195984 516.876526,451.325256
	C502.698975,456.307831 488.072296,459.446472 473.203278,461.552582
	C437.890411,466.554443 403.223846,463.754456 370.165253,450.283630
	C310.579926,426.003510 273.623779,381.461548 261.154022,318.766907
	C247.905472,252.156830 261.266205,189.363739 298.062622,132.462143
	C331.959412,80.044556 380.816681,47.142975 440.871490,29.749424
z"/>
<path fill="#000000" opacity="1.000000" stroke="none"
	d="
M679.657898,78.329483
	C684.810364,82.067291 687.393372,86.676659 685.980469,92.739395
	C684.867249,97.516502 681.503723,100.410049 676.836182,101.708900
	C667.024536,104.439224 652.471008,90.303352 654.949768,80.487740
	C656.831299,73.036858 665.492493,69.318962 672.524048,73.140991
	C674.981079,74.476555 677.099792,76.434814 679.657898,78.329483
z"/>
</svg>
